<svg xmlns="http://www.w3.org/2000/svg" xmlns:xlink="http://www.w3.org/1999/xlink" width="400" zoomAndPan="magnify" viewBox="0 0 300 299.999988" height="400" preserveAspectRatio="xMidYMid meet" version="1.0"><defs><clipPath id="c0ee52d9e3"><path d="M 35.839844 30.117188 L 265.667969 30.117188 L 265.667969 259.945312 L 35.839844 259.945312 Z M 35.839844 30.117188 " clip-rule="nonzero"/></clipPath><clipPath id="27056a0d21"><path d="M 150.753906 30.117188 C 87.289062 30.117188 35.839844 81.566406 35.839844 145.03125 C 35.839844 208.496094 87.289062 259.945312 150.753906 259.945312 C 214.21875 259.945312 265.667969 208.496094 265.667969 145.03125 C 265.667969 81.566406 214.21875 30.117188 150.753906 30.117188 Z M 150.753906 30.117188 " clip-rule="nonzero"/></clipPath><clipPath id="0d327dfd2b"><path d="M 0.839844 0.117188 L 230.667969 0.117188 L 230.667969 229.945312 L 0.839844 229.945312 Z M 0.839844 0.117188 " clip-rule="nonzero"/></clipPath><clipPath id="46f578fbaa"><path d="M 115.753906 0.117188 C 52.289062 0.117188 0.839844 51.566406 0.839844 115.03125 C 0.839844 178.496094 52.289062 229.945312 115.753906 229.945312 C 179.21875 229.945312 230.667969 178.496094 230.667969 115.03125 C 230.667969 51.566406 179.21875 0.117188 115.753906 0.117188 Z M 115.753906 0.117188 " clip-rule="nonzero"/></clipPath><clipPath id="d94c0107d8"><rect x="0" width="231" y="0" height="230"/></clipPath><clipPath id="b745d13a7e"><path d="M 29 23 L 271 23 L 271 266 L 29 266 Z M 29 23 " clip-rule="nonzero"/></clipPath><clipPath id="18d45644a0"><path d="M 231.933594 -5.417969 L 300.0625 226.816406 L 67.832031 294.945312 L -0.300781 62.714844 Z M 231.933594 -5.417969 " clip-rule="nonzero"/></clipPath><clipPath id="b86373eaf3"><path d="M 231.933594 -5.417969 L 300.0625 226.816406 L 67.832031 294.945312 L -0.300781 62.714844 Z M 231.933594 -5.417969 " clip-rule="nonzero"/></clipPath><clipPath id="8d91d49593"><path d="M 125.296875 122.648438 L 162.476562 122.648438 L 162.476562 159.828125 L 125.296875 159.828125 Z M 125.296875 122.648438 " clip-rule="nonzero"/></clipPath><clipPath id="66c9c3923f"><path d="M 143.886719 122.648438 C 133.621094 122.648438 125.296875 130.972656 125.296875 141.238281 C 125.296875 151.507812 133.621094 159.828125 143.886719 159.828125 C 154.15625 159.828125 162.476562 151.507812 162.476562 141.238281 C 162.476562 130.972656 154.15625 122.648438 143.886719 122.648438 Z M 143.886719 122.648438 " clip-rule="nonzero"/></clipPath><clipPath id="cf974ff6a4"><path d="M 0.296875 0.648438 L 37.476562 0.648438 L 37.476562 37.828125 L 0.296875 37.828125 Z M 0.296875 0.648438 " clip-rule="nonzero"/></clipPath><clipPath id="6acfbfb680"><path d="M 18.886719 0.648438 C 8.621094 0.648438 0.296875 8.972656 0.296875 19.238281 C 0.296875 29.507812 8.621094 37.828125 18.886719 37.828125 C 29.15625 37.828125 37.476562 29.507812 37.476562 19.238281 C 37.476562 8.972656 29.15625 0.648438 18.886719 0.648438 Z M 18.886719 0.648438 " clip-rule="nonzero"/></clipPath><clipPath id="8415398c87"><rect x="0" width="38" y="0" height="38"/></clipPath><clipPath id="409266aee6"><path d="M 129.894531 127.246094 L 157.878906 127.246094 L 157.878906 155.230469 L 129.894531 155.230469 Z M 129.894531 127.246094 " clip-rule="nonzero"/></clipPath><clipPath id="c3f70068b7"><path d="M 143.886719 127.246094 C 136.160156 127.246094 129.894531 133.511719 129.894531 141.238281 C 129.894531 148.964844 136.160156 155.230469 143.886719 155.230469 C 151.617188 155.230469 157.878906 148.964844 157.878906 141.238281 C 157.878906 133.511719 151.617188 127.246094 143.886719 127.246094 Z M 143.886719 127.246094 " clip-rule="nonzero"/></clipPath><clipPath id="5ae402534d"><path d="M 0.894531 0.246094 L 28.878906 0.246094 L 28.878906 28.230469 L 0.894531 28.230469 Z M 0.894531 0.246094 " clip-rule="nonzero"/></clipPath><clipPath id="36b392be5b"><path d="M 14.886719 0.246094 C 7.160156 0.246094 0.894531 6.511719 0.894531 14.238281 C 0.894531 21.964844 7.160156 28.230469 14.886719 28.230469 C 22.617188 28.230469 28.878906 21.964844 28.878906 14.238281 C 28.878906 6.511719 22.617188 0.246094 14.886719 0.246094 Z M 14.886719 0.246094 " clip-rule="nonzero"/></clipPath><clipPath id="a24ce45cc4"><rect x="0" width="29" y="0" height="29"/></clipPath><clipPath id="855eb51bc0"><rect x="0" width="300" y="0" height="295"/></clipPath></defs><g clip-path="url(#c0ee52d9e3)"><g clip-path="url(#27056a0d21)"><g transform="matrix(1, 0, 0, 1, 35, 30)"><g clip-path="url(#d94c0107d8)"><g clip-path="url(#0d327dfd2b)"><g clip-path="url(#46f578fbaa)"><path fill="#000000" d="M 0.839844 0.117188 L 230.667969 0.117188 L 230.667969 229.945312 L 0.839844 229.945312 Z M 0.839844 0.117188 " fill-opacity="1" fill-rule="nonzero"/></g></g></g></g></g></g><g transform="matrix(1, 0, 0, 1, 0, 0)"><g clip-path="url(#855eb51bc0)"><g clip-path="url(#b745d13a7e)"><g clip-path="url(#18d45644a0)"><g clip-path="url(#b86373eaf3)"><path fill="#ae0000" d="M 34.023438 178.589844 C 24.9375 147.613281 28.457031 114.953125 43.933594 86.625 C 59.410156 58.296875 84.992188 37.691406 115.96875 28.601562 C 146.941406 19.515625 179.601562 23.035156 207.929688 38.511719 C 236.261719 53.988281 256.867188 79.570312 265.953125 110.546875 C 275.039062 141.519531 271.523438 174.179688 256.042969 202.511719 C 240.566406 230.839844 214.984375 251.445312 184.011719 260.53125 C 153.035156 269.621094 120.375 266.101562 92.046875 250.625 C 63.71875 235.144531 43.113281 209.5625 34.023438 178.589844 Z M 258.757812 112.65625 C 250.234375 83.605469 230.90625 59.609375 204.335938 45.09375 C 177.765625 30.578125 147.132812 27.277344 118.078125 35.800781 C 89.027344 44.324219 65.03125 63.648438 50.515625 90.21875 C 35.996094 116.789062 32.699219 147.425781 41.222656 176.476562 C 49.746094 205.53125 69.070312 229.523438 95.640625 244.042969 C 122.210938 258.558594 152.847656 261.859375 181.898438 253.335938 C 210.953125 244.8125 234.945312 225.484375 249.464844 198.914062 C 263.980469 172.34375 267.28125 141.710938 258.757812 112.65625 Z M 236.367188 191.757812 C 237.214844 190.203125 236.859375 188.265625 235.515625 187.113281 L 162.035156 124.136719 C 161.941406 124.054688 161.839844 123.980469 161.738281 123.910156 C 161.734375 123.90625 161.730469 123.902344 161.722656 123.898438 C 161.636719 123.839844 161.546875 123.785156 161.453125 123.730469 C 161.414062 123.707031 161.371094 123.683594 161.328125 123.664062 C 161.234375 123.613281 161.136719 123.566406 161.042969 123.523438 C 161.039062 123.523438 161.035156 123.523438 161.03125 123.519531 C 160.914062 123.472656 160.792969 123.429688 160.671875 123.394531 L 67.980469 95.582031 C 66.285156 95.074219 64.460938 95.820312 63.613281 97.375 C 63.121094 98.273438 63.03125 99.300781 63.304688 100.230469 C 63.503906 100.910156 63.894531 101.535156 64.460938 102.019531 L 137.941406 164.996094 C 137.941406 164.996094 137.941406 164.996094 137.945312 165 C 138.136719 165.164062 138.351562 165.3125 138.585938 165.441406 C 138.816406 165.570312 139.058594 165.667969 139.304688 165.742188 L 231.996094 193.550781 C 233.695312 194.0625 235.515625 193.3125 236.367188 191.757812 Z M 145.890625 159.886719 L 160.667969 132.84375 L 217.179688 181.277344 Z M 145.890625 159.886719 " fill-opacity="1" fill-rule="nonzero"/></g></g></g><g clip-path="url(#8d91d49593)"><g clip-path="url(#66c9c3923f)"><g transform="matrix(1, 0, 0, 1, 125, 122)"><g clip-path="url(#8415398c87)"><g clip-path="url(#cf974ff6a4)"><g clip-path="url(#6acfbfb680)"><path fill="#000000" d="M 0.296875 0.648438 L 37.476562 0.648438 L 37.476562 37.828125 L 0.296875 37.828125 Z M 0.296875 0.648438 " fill-opacity="1" fill-rule="nonzero"/></g></g></g></g></g></g><g clip-path="url(#409266aee6)"><g clip-path="url(#c3f70068b7)"><g transform="matrix(1, 0, 0, 1, 129, 127)"><g clip-path="url(#a24ce45cc4)"><g clip-path="url(#5ae402534d)"><g clip-path="url(#36b392be5b)"><path fill="#b39c9c" d="M 0.894531 0.246094 L 28.878906 0.246094 L 28.878906 28.230469 L 0.894531 28.230469 Z M 0.894531 0.246094 " fill-opacity="1" fill-rule="nonzero"/></g></g></g></g></g></g></g></g></svg>